0
SECTION
2
HEADER
9
$INSUNITS
70
4
9
$ACADVER
1
AC1014
9
$HANDSEED
5
FFFF
0
ENDSEC
0
SECTION
2
TABLES
0
TABLE
2
VPORT
5
8
100
AcDbSymbolTable
0
ENDTAB
0
TABLE
2
LTYPE
5
5
100
AcDbSymbolTable
0
LTYPE
5
14
100
AcDbSymbolTableRecord
100
AcDbLinetypeTableRecord
2
BYBLOCK
70
0
0
LTYPE
5
15
100
AcDbSymbolTableRecord
100
AcDbLinetypeTableRecord
2
BYLAYER
70
0
0
ENDTAB
0
TABLE
2
LAYER
5
2
100
AcDbSymbolTable
70
2
0
LAYER
5
50
100
AcDbSymbolTableRecord
100
AcDbLayerTableRecord
2
0
70
0
6
CONTINUOUS
0
ENDTAB
0
TABLE
2
STYLE
5
3
100
AcDbSymbolTable
70
1
0
STYLE
5
11
100
AcDbSymbolTableRecord
100
AcDbTextStyleTableRecord
2
STANDARD
70
0
0
ENDTAB
0
TABLE
2
VIEW
5
6
100
AcDbSymbolTable
70
0
0
ENDTAB
0
TABLE
2
UCS
5
7
100
AcDbSymbolTable
70
0
0
ENDTAB
0
TABLE
2
APPID
5
9
100
AcDbSymbolTable
70
2
0
APPID
5
12
100
AcDbSymbolTableRecord
100
AcDbRegAppTableRecord
2
ACAD
70
0
0
ENDTAB
0
TABLE
2
DIMSTYLE
5
A
100
AcDbSymbolTable
70
1
0
ENDTAB
0
TABLE
2
BLOCK_RECORD
5
1
100
AcDbSymbolTable
70
1
0
BLOCK_RECORD
5
1F
100
AcDbSymbolTableRecord
100
AcDbBlockTableRecord
2
*MODEL_SPACE
0
BLOCK_RECORD
5
1B
100
AcDbSymbolTableRecord
100
AcDbBlockTableRecord
2
*PAPER_SPACE
0
ENDTAB
0
ENDSEC
0
SECTION
2
BLOCKS
0
BLOCK
5
20
100
AcDbEntity
100
AcDbBlockBegin
2
*MODEL_SPACE
0
ENDBLK
5
21
100
AcDbEntity
100
AcDbBlockEnd
0
BLOCK
5
1C
100
AcDbEntity
100
AcDbBlockBegin
2
*PAPER_SPACE
0
ENDBLK
5
1D
100
AcDbEntity
100
AcDbBlockEnd
0
ENDSEC
0
SECTION
2
ENTITIES
0
CIRCLE
5
100
100
AcDbEntity
8
0
100
AcDbCircle
10
-43.299999999999997
20
3.5000000000000004
30
0
40
1.749999999999998
210
0
220
-0
230
1
0
CIRCLE
5
101
100
AcDbEntity
8
0
100
AcDbCircle
10
-3.5000000000000004
20
43.299999999999997
30
0
40
1.75
210
0
220
-0
230
1
0
CIRCLE
5
102
100
AcDbEntity
8
0
100
AcDbCircle
10
-43.299999999999997
20
43.299999999999997
30
0
40
1.749999999999998
210
0
220
-0
230
1
0
CIRCLE
5
103
100
AcDbEntity
8
0
100
AcDbCircle
10
-3.5000000000000004
20
3.5000000000000004
30
0
40
1.75
210
0
220
-0
230
1
0
LWPOLYLINE
5
104
100
AcDbEntity
8
0
100
AcDbPolyline
90
12
70
1
43
0.0
10
-39.799999999999997
20
0
10
-46.799999999999997
20
0
10
-46.799999999999997
20
46.799999999999997
10
-39.799999999999997
20
46.799999999999997
10
-39.799999999999997
20
43.799999999999997
10
-16.999999999999989
20
43.799999999999997
10
-16.999999999999989
20
46.799999999999997
10
0
20
46.799999999999997
10
0
20
0
10
-7.0000000000000018
20
0
10
-7.0000000000000018
20
3.0000000000000004
10
-39.799999999999997
20
3.0000000000000004
0
LINE
5
105
100
AcDbEntity
8
0
100
AcDbLine
10
-46.799999999999997
20
0
30
0
11
-46.799999999999997
21
46.799999999999997
31
0
0
LINE
5
106
100
AcDbEntity
8
0
100
AcDbLine
10
2.8656735100048066e-15
20
46.799999999999997
30
0
11
0
21
0
31
0
0
CIRCLE
5
107
100
AcDbEntity
8
0
100
AcDbCircle
10
-3.4999999999999964
20
43.29999999999999
30
0
40
1.75
210
0
220
0
230
1
0
CIRCLE
5
108
100
AcDbEntity
8
0
100
AcDbCircle
10
-43.299999999999997
20
43.299999999999997
30
0
40
1.75
210
0
220
0
230
1
0
CIRCLE
5
109
100
AcDbEntity
8
0
100
AcDbCircle
10
-3.4999999999999964
20
3.4999999999999964
30
0
40
1.7499999999999982
210
0
220
0
230
1
0
CIRCLE
5
110
100
AcDbEntity
8
0
100
AcDbCircle
10
-43.299999999999997
20
3.4999999999999964
30
0
40
1.7499999999999982
210
0
220
0
230
1
0
CIRCLE
5
111
100
AcDbEntity
8
0
100
AcDbCircle
10
-43.299999999999997
20
15
30
0
40
1.7499999999999982
210
0
220
0
230
1
0
CIRCLE
5
112
100
AcDbEntity
8
0
100
AcDbCircle
10
-3.4999999999999964
20
9.9999999999999964
30
0
40
1.7499999999999982
210
0
220
0
230
1
0
CIRCLE
5
113
100
AcDbEntity
8
0
100
AcDbCircle
10
-43.299999999999997
20
36.799999999999997
30
0
40
1.7500000000000004
210
0
220
0
230
1
0
CIRCLE
5
114
100
AcDbEntity
8
0
100
AcDbCircle
10
-3.4999999999999964
20
31.799999999999997
30
0
40
1.7500000000000004
210
0
220
0
230
1
0
LWPOLYLINE
5
115
100
AcDbEntity
8
0
100
AcDbPolyline
90
4
70
1
43
0.0
10
-7.0000000000000062
20
7
10
-39.799999999999997
20
7.0000000000000018
10
-39.799999999999997
20
39.799999999999997
10
-7.0000000000000018
20
39.799999999999997
0
CIRCLE
5
116
100
AcDbEntity
8
0
100
AcDbCircle
10
-3.5000000000000004
20
3.5000000000000004
30
0
40
1.75
210
0
220
-0
230
1
0
CIRCLE
5
117
100
AcDbEntity
8
0
100
AcDbCircle
10
-43.299999999999997
20
43.299999999999997
30
0
40
1.7499999999999982
210
0
220
-0
230
1
0
CIRCLE
5
118
100
AcDbEntity
8
0
100
AcDbCircle
10
-3.5000000000000004
20
43.299999999999997
30
0
40
1.75
210
0
220
-0
230
1
0
CIRCLE
5
119
100
AcDbEntity
8
0
100
AcDbCircle
10
-43.299999999999997
20
3.5000000000000004
30
0
40
1.7499999999999982
210
0
220
-0
230
1
0
LWPOLYLINE
5
120
100
AcDbEntity
8
0
100
AcDbPolyline
90
12
70
1
43
0.0
10
-46.799999999999997
20
46.799999999999997
10
-46.799999999999997
20
0
10
-39.799999999999997
20
0
10
-39.799999999999997
20
3.0000000000000004
10
-7.0000000000000009
20
3.0000000000000004
10
-7.0000000000000009
20
0
10
0
20
0
10
0
20
46.799999999999997
10
-16.999999999999989
20
46.799999999999997
10
-16.999999999999989
20
43.799999999999997
10
-39.799999999999997
20
43.799999999999997
10
-39.799999999999997
20
46.799999999999997
0
CIRCLE
5
121
100
AcDbEntity
8
0
100
AcDbCircle
10
-3.4999999999999964
20
9.9999999999999964
30
0
40
1.7499999999999982
210
0
220
0
230
1
0
CIRCLE
5
122
100
AcDbEntity
8
0
100
AcDbCircle
10
-3.4999999999999964
20
31.799999999999997
30
0
40
1.7500000000000004
210
0
220
0
230
1
0
CIRCLE
5
123
100
AcDbEntity
8
0
100
AcDbCircle
10
-3.4999999999999964
20
43.29999999999999
30
0
40
1.7500000000000038
210
0
220
0
230
1
0
CIRCLE
5
124
100
AcDbEntity
8
0
100
AcDbCircle
10
-43.299999999999997
20
43.299999999999997
30
0
40
1.7499999999999987
210
0
220
0
230
1
0
CIRCLE
5
125
100
AcDbEntity
8
0
100
AcDbCircle
10
-43.299999999999997
20
36.799999999999997
30
0
40
1.7499999999999982
210
0
220
0
230
1
0
CIRCLE
5
126
100
AcDbEntity
8
0
100
AcDbCircle
10
-43.299999999999997
20
15
30
0
40
1.7499999999999982
210
0
220
0
230
1
0
CIRCLE
5
127
100
AcDbEntity
8
0
100
AcDbCircle
10
-43.299999999999997
20
3.4999999999999964
30
0
40
1.7499999999999982
210
0
220
0
230
1
0
LINE
5
128
100
AcDbEntity
8
0
100
AcDbLine
10
0
20
0
30
0
11
0
21
46.799999999999997
31
0
0
LINE
5
129
100
AcDbEntity
8
0
100
AcDbLine
10
-16.999999999999989
20
46.799999999999997
30
0
11
0
21
46.799999999999997
31
0
0
LINE
5
130
100
AcDbEntity
8
0
100
AcDbLine
10
-16.999999999999989
20
46.799999999999997
30
0
11
-16.999999999999989
21
43.799999999999997
31
0
0
LINE
5
131
100
AcDbEntity
8
0
100
AcDbLine
10
-16.999999999999989
20
43.799999999999997
30
0
11
-39.799999999999997
21
43.799999999999997
31
0
0
LINE
5
132
100
AcDbEntity
8
0
100
AcDbLine
10
-39.799999999999997
20
43.799999999999997
30
0
11
-39.799999999999997
21
46.799999999999997
31
0
0
LINE
5
133
100
AcDbEntity
8
0
100
AcDbLine
10
-46.799999999999997
20
46.799999999999997
30
0
11
-40
21
46.799999999999997
31
0
0
LINE
5
134
100
AcDbEntity
8
0
100
AcDbLine
10
-46.799999999999997
20
46.799999999999997
30
0
11
-46.799999999999997
21
0
31
0
0
LINE
5
135
100
AcDbEntity
8
0
100
AcDbLine
10
-46.799999999999997
20
0
30
0
11
-39.799999999999997
21
0
31
0
0
LINE
5
136
100
AcDbEntity
8
0
100
AcDbLine
10
-39.799999999999997
20
0
30
0
11
-39.799999999999997
21
3.0000000000000004
31
0
0
LINE
5
137
100
AcDbEntity
8
0
100
AcDbLine
10
-39.799999999999997
20
3.0000000000000004
30
0
11
-7.0000000000000018
21
3.0000000000000004
31
0
0
LINE
5
138
100
AcDbEntity
8
0
100
AcDbLine
10
-7.0000000000000009
20
3.0000000000000004
30
0
11
-7.0000000000000009
21
0
31
0
0
LINE
5
139
100
AcDbEntity
8
0
100
AcDbLine
10
-7.0000000000000009
20
0
30
0
11
0
21
0
31
0
0
LINE
5
140
100
AcDbEntity
8
0
100
AcDbLine
10
-7.0000000000000062
20
7
30
0
11
-7.0000000000000018
21
39.799999999999997
31
0
0
LINE
5
141
100
AcDbEntity
8
0
100
AcDbLine
10
-7.0000000000000018
20
39.799999999999997
30
0
11
-39.799999999999997
21
39.799999999999997
31
0
0
LINE
5
142
100
AcDbEntity
8
0
100
AcDbLine
10
-39.799999999999997
20
39.799999999999997
30
0
11
-39.799999999999997
21
7.0000000000000018
31
0
0
LINE
5
143
100
AcDbEntity
8
0
100
AcDbLine
10
-39.799999999999997
20
7.0000000000000018
30
0
11
-7.0000000000000062
21
7
31
0
0
ENDSEC
0
SECTION
2
OBJECTS
0
DICTIONARY
5
C
100
AcDbDictionary
3
ACAD_GROUP
350
D
3
ACAD_MLINESTYLE
350
17
0
DICTIONARY
5
D
100
AcDbDictionary
0
DICTIONARY
5
1A
330
C
100
AcDbDictionary
0
DICTIONARY
5
17
100
AcDbDictionary
0
ENDSEC
0
EOF
